<svg xmlns="http://www.w3.org/2000/svg" viewBox="0 -0.5 16 24" shape-rendering="crispEdges">
<path stroke="#000000" d="M7 0h2M2 1h2M5 1h2M9 1h2M12 1h2M1 2h1M4 2h1M6 2h1M9 2h1M11 2h1M14 2h1M2 3h1M7 3h2M13 3h1M3 4h1M5 4h1M10 4h1M12 4h1M2 5h1M6 5h1M9 5h1M13 5h1M1 6h2M13 6h2M0 7h1M3 7h3M10 7h3M15 7h1M0 8h1M4 8h1M6 8h4M11 8h1M15 8h1M1 9h1M3 9h1M5 9h1M10 9h1M12 9h1M14 9h1M2 10h2M6 10h4M12 10h2M1 11h1M3 11h1M12 11h1M14 11h1M0 12h1M3 12h2M11 12h2M15 12h1M0 13h1M2 13h1M4 13h2M10 13h2M13 13h1M15 13h1M0 14h1M2 14h1M6 14h4M13 14h1M15 14h1M0 15h1M3 15h3M10 15h3M15 15h1M0 16h16M0 17h1M15 17h1M0 18h1M15 18h1M0 19h1M15 19h1M0 20h1M15 20h1M0 21h1M15 21h1M0 22h1M15 22h1M0 23h16" />
<path stroke="#f8f8f8" d="M7 1h2M7 2h2M5 5h1M10 5h1M1 7h2M7 7h1M13 7h2M1 8h1M5 8h1M10 8h1M13 8h1M6 9h4M5 11h6M5 12h6M6 13h4M3 14h1M5 14h1M10 14h1M12 14h1" />
<path stroke="#f89850" d="M2 2h2M13 2h1M3 3h1M12 3h1M8 7h1M2 8h1M14 8h1M1 12h1M14 12h1M1 13h1M14 13h1M1 14h1M14 14h1M1 15h2M13 15h2M1 17h1M14 17h1M1 18h14M1 19h1M14 19h1M1 20h1M14 20h1M1 21h14M1 22h1M14 22h1" />
<path stroke="#f83808" d="M5 2h1M10 2h1M12 2h1M4 3h3M9 3h3M4 4h1M6 4h4M11 4h1M3 5h2M7 5h2M11 5h2M3 6h10M6 7h1M9 7h1M3 8h1M12 8h1M2 9h1M4 9h1M11 9h1M13 9h1M4 10h2M10 10h2M2 11h1M4 11h1M11 11h1M13 11h1M2 12h1M13 12h1M3 13h1M12 13h1M4 14h1M11 14h1M6 15h4M2 17h12M2 19h12M2 20h12M2 22h12" />
</svg>
