<svg xmlns="http://www.w3.org/2000/svg" viewBox="0 -0.5 16 16" shape-rendering="crispEdges">
<path stroke="#000001" d="M3 0h3M11 0h3M2 1h1M6 1h5M14 1h1M2 2h1M4 2h1M12 2h1M14 2h1M2 3h2M13 3h2M3 4h1M5 4h1M11 4h1M13 4h1M3 5h1M13 5h1M2 6h1M14 6h1M2 7h1M5 7h7M14 7h1M3 8h1M13 8h1M4 9h9M3 10h1M12 10h1M3 11h1M12 11h1M2 12h1M13 12h1M2 13h1M13 13h1M3 14h1M6 14h3M12 14h1M4 15h2M9 15h3" />
<path stroke="#f83808" d="M3 1h3M11 1h3M3 2h1M5 2h7M13 2h1M7 3h3M7 4h3M7 5h3M4 10h8M4 11h8M3 12h10M3 13h10M4 14h2M9 14h3" />
<path stroke="#f89850" d="M4 3h3M10 3h3M4 4h1M6 4h1M10 4h1M12 4h1M4 5h3M10 5h3M3 6h11M3 7h2M12 7h2M4 8h9" />
</svg>
