<svg xmlns="http://www.w3.org/2000/svg" viewBox="0 -0.5 16 16" shape-rendering="crispEdges">
<path stroke="#000001" d="M2 3h5M10 3h5M1 4h1M7 4h3M15 4h1M1 5h1M15 5h1M1 6h1M15 6h1M1 7h1M15 7h1M1 8h1M15 8h1M1 9h1M15 9h1M1 10h1M15 10h1M1 11h1M15 11h1M1 12h1M15 12h1M1 13h15" />
<path stroke="#f89850" d="M2 4h1M14 4h1M2 5h1M4 5h3M8 5h1M10 5h3M14 5h1M2 6h1M7 6h2M10 6h3M14 6h1M2 7h1M4 7h1M6 7h1M8 7h1M10 7h3M14 7h1M2 8h1M8 8h1M14 8h1M2 9h1M8 9h1M10 9h1M12 9h1M14 9h1M2 10h1M4 10h3M8 10h1M14 10h1M2 11h1M8 11h1M14 11h1M2 12h13" />
<path stroke="#e8e8e8" d="M3 4h4M10 4h4M3 5h1M7 5h1M9 5h1M13 5h1M3 6h4M9 6h1M13 6h1M3 7h1M5 7h1M7 7h1M9 7h1M13 7h1M3 8h5M9 8h5M3 9h5M9 9h1M11 9h1M13 9h1M3 10h1M7 10h1M9 10h5M3 11h5M9 11h5" />
</svg>
