<svg xmlns="http://www.w3.org/2000/svg" shape-rendering="crispEdges" viewBox="0 -0.5 28 15"><path stroke="#000" d="M12 0h5m-7 1h2m5 0h2M9 2h1m9 0h7M4 3h2m2 0h1m11 0h1m5 0h1M3 4h1m2 0h2m12 0h1m6 0h1M3 5h2m16 0h1m1 0h1m3 0h1M3 6h1m7 0h2m4 0h1m3 0h2m1 0h1m2 0h1M2 7h1m10 0h1m2 0h1m4 0h1m2 0h1m2 0h1M2 8h2m9 0h1m2 0h1m4 0h1m2 0h1m1 0h1M2 9h1m1 0h1m7 0h1m3 0h1m3 0h1m3 0h2M1 10h1m6 0h2m6 0h2m1 0h1M0 11h1m10 0h1m2 0h2m1 0h2M0 12h3m7 0h1m3 0h1M3 13h2m5 0h1m2 0h1m-9 1h8"/><path stroke="#ca4d19" d="M12 1h1m3 0h1m-7 1h1m7 0h1M9 3h1m9 0h1m2 0h1m2 0h1M4 4h1m3 0h2m11 0h4m1 0h1M5 5h1m4 0h2m8 0h1M4 6h1m13 0h1M3 7h1m6 0h1m6 0h1m-7 1h2m2 0h1m4 0h1m-8 1h3m1 0h1M5 10h2m5 0h1m1 0h2m-3 2h1m-2 1h1"/><path stroke="#f38e65" d="M13 1h3m-5 1h7m-8 1h9m4 0h2M5 4h1m4 0h10m5 0h1M6 5h4m2 0h8m5 0h2M5 6h6m2 0h4m2 0h2M5 7h5m1 0h2m1 0h2m2 0h3M6 8h2m1 0h2m3 0h1m2 0h3M6 9h2m2 0h2m6 0h2m-9 1h1m1 0h1m-2 1h2m-3 1h2"/><path stroke="#94200c" d="M21 3h1m0 2h1m1 0h1"/><path stroke="#818f96" d="M25 6h1"/><path stroke="#fff" d="M26 6h1M4 7h1M4 8h2m19 0h1M8 9h1m-2 1h1m10 0h1m-8 3h1"/><path stroke="#b0b7be" d="M25 7h1"/><path stroke="#d9b16f" d="M26 7h1M8 8h1m-7 2h1m7 0h1m-9 1h1m4 0h1m-4 1h1m4 0h1m-3 1h1"/><path stroke="#b77a34" d="M3 9h1m-1 2h1m4 0h3m-8 1h1m1 0h1m-1 1h2m1 0h2"/><path stroke="#d8dfdf" d="M5 9h1m3 0h1"/><path stroke="#fce7a5" d="M3 10h2m-1 1h3m-1 1h3"/><path stroke="#4c666e" d="M1 11h1"/></svg>
