<svg xmlns="http://www.w3.org/2000/svg" version="1.0" viewBox="0 0 1792 1792"><path d="M768 448v32l-63.7.2-63.8.3v63l63.8.3 63.7.2v-64h320l.2 31.7.3 31.8h127v-63l-63.7-.3-63.8-.2v-64H768v32zm-191.3 96.7c-.4.3-.7 14.7-.7 32V608h-64v64l-63.7.2-63.8.3v63l63.8.3 63.7.2v-64h64v-64l31.8-.2 31.7-.3v-63l-31.1-.3c-17.1-.1-31.3.1-31.7.5zM1216 576v32h64v128h64l.2-63.8c.2-35 .4-49.4.5-32l.3 31.8h62v-64l128.3-.2 128.2-.3v-63l-223.7-.3-223.8-.2v32zm-960 64v32h-64v192l-31.7.2-31.8.3v191h63l.3-31.8.2-31.7h64v-64h-64v-64h64v-64h64v-64h-64v-64h128l-.2-31.8-.3-31.7-63.7-.3-63.8-.2v32zm1408 0v32h64v256h-63v64l31.3-.2 31.2-.3.3-31.8.2-31.7h64V672h-64v-64h-64v32zm-319.5 97.1c-.3.8-.4 58.3-.3 127.9l.3 126.5h63l.3-63.8.2-63.7h64v-64l-32.2-.2-32.3-.3 31.8-.2 31.7-.3v-62h-16.3c-9 0-37.4-.3-63-.7-39.7-.5-46.7-.4-47.2.8zM1472 768v32h15.8c8.7 0 37.4-.3 63.8-.7l47.9-.6-.3-30.7-.3-30.7-47.2-.6c-25.9-.4-54.5-.7-63.4-.7H1472v32zm-768 64v32h128l-.2-31.8-.3-31.7-63.7-.3-63.8-.2v32zm384.5-30.8c-.3.7-.4 15-.3 31.8l.3 30.5h63v-63l-31.3-.3c-24.6-.2-31.4 0-31.7 1zM1536 928v128l63.8-.2 63.7-.3.3-31.3.2-31.2h-64V800h-64v128zm-703.3-63.3c-.4.3-.7 29.1-.7 64V992h-64v64h64v-64l31.8-.2 31.7-.3v-127l-31.1-.3c-17.1-.1-31.3.1-31.7.5zM1024 992v128H896l.2 63.7.3 63.8h63l.3-31.8.2-31.7h64v-64h64v64h128v-64h64v-64l31.8-.2 31.7-.3v-63l-31.7-.3-31.8-.2v64l-31.7.2-31.8.3-.3 31.7-.2 31.8h-65v-64h-63V864h-64v128zm-768 32v31h64v-62h-64v31zm-191.3 32.7c-.4.3-.7 14.7-.7 32v31.3H0v128l95.8-.2 95.7-.3v-63l-63.7-.3-63.8-.2v-64l31.8-.2 31.7-.3v-63l-31.1-.3c-17.1-.1-31.3.1-31.7.5zm448 0c-.4.3-.7 14.7-.7 32v31.3l63.8-.2 63.7-.3v-63l-63.1-.3c-34.7-.1-63.4.1-63.7.5zM704 1152v32h64v-64h-64v32zm-63.3 32.7c-.4.3-.7 29.1-.7 64v63.3H320l-.2-31.8-.3-31.7h-127v63l63.8.3 63.7.2v64h512v-64l31.8-.2 31.7-.3v-63h-63l-.3 31.7-.2 31.8H704l-.2-63.8-.3-63.7-31.1-.3c-17.1-.1-31.3.1-31.7.5z"/></svg>
